<svg width="98" height="112" viewBox="0 0 98 112" fill="none" xmlns="http://www.w3.org/2000/svg">
<path d="M84.5943 9.90286C83.0369 8.70498 81.7644 7.23195 80.377 5.85523C78.8716 4.36167 75.3868 1.13187 79.6575 0.00739834C81.7395 -0.151928 83.2495 2.30097 84.5919 3.61669L89.1268 8.11418C94.1048 13.089 92.6952 12.6973 88.4675 16.9727L83.7381 21.7245C82.6976 22.7508 81.2784 24.7217 79.6352 24.5629C77.8805 24.3937 76.8582 22.4532 77.9571 21.0542C78.9654 19.7707 83.4756 15.2201 84.5943 14.4173L21.6207 14.4155C16.9032 14.43 12.7654 15.6064 9.36801 19.0334C4.30559 24.1403 5.22999 32.3321 5.2988 39.1396C5.36702 45.8548 9.91005 51.4045 16.3376 53.1935C18.806 53.8806 21.3658 53.7718 23.9018 53.7715L68.9253 53.7686C72.0254 53.768 75.2486 53.6315 78.2904 54.3269C91.0857 57.2525 99.3855 69.8915 96.9418 82.7976C95.2127 91.9319 87.7858 99.4375 78.6937 101.467C75.2925 102.226 71.7911 102.056 68.329 102.054L19.2908 102.052C17.3096 102.056 15.2901 101.943 13.3156 102.052C14.6255 102.911 20.311 108.501 20.2823 109.596C20.2483 110.902 19.134 112.125 17.7614 111.99C16.6053 111.876 15.4341 110.26 14.6775 109.503L10.3319 105.077C9.15549 103.873 7.79096 102.752 6.71123 101.471C4.77505 99.1748 6.83259 97.6898 8.40123 96.1578L12.5355 92.1525C14.2078 90.5275 17.246 85.9093 19.6523 88.2448C21.7101 90.2423 19.0278 92.145 17.6545 93.4603C16.2171 94.8373 14.798 96.2268 13.3156 97.5564L53.4367 97.557C55.1006 97.5573 56.772 97.6032 58.4347 97.5564C56.7964 96.5284 55.3732 95.1355 54.1463 93.6537C44.5414 82.0528 47.1668 67.1721 58.4347 58.0767C56.5955 58.3192 54.706 58.234 52.8543 58.2326L45.0184 58.232C36.9424 58.2311 28.8544 58.3307 20.7799 58.2274C10.3662 58.0943 1.86957 51.1614 0.924211 40.67C0.775128 39.0155 0.856506 37.3033 0.858451 35.6413C0.867771 27.7489 0.411553 21.3186 6.8024 15.2611C12.9048 9.47688 19.6116 9.90243 27.3764 9.90292L70.2794 9.90298C75.0422 9.90292 79.8349 9.78923 84.5943 9.90286ZM70.9907 58.2317C64.7359 59.2848 60.1325 61.3414 56.2613 66.7639C50.1583 75.3116 52.5317 87.953 61.1272 93.9253C65.4109 96.902 69.4572 97.4603 74.5394 97.3734C76.0621 97.1846 77.5643 96.9929 79.0423 96.5642C99.4805 90.6372 96.1734 60.2089 74.5437 58.3613C73.3601 58.2603 72.1715 58.3287 70.9907 58.2317Z" fill="black"/>
<path d="M83.5694 81.4669C81.4706 81.7449 75.2707 81.5728 73.187 81.4348C72.0501 81.3595 71.0592 81.0174 70.6664 79.8164C70.4141 79.0442 70.3854 68.633 70.5477 66.7207C70.64 65.6358 71.362 65.0258 72.3953 64.7481C75.6484 64.6058 75.1311 67.7259 75.1299 69.913C75.1285 72.267 75.0884 74.6256 75.1261 76.9789C76.5975 76.9769 82.7353 76.7898 83.7352 77.1446C86.0415 77.9628 85.5831 80.6363 83.5694 81.4669Z" fill="black"/>
</svg>
